<svg width="512" height="512" viewBox="0 0 108 108" xmlns="http://www.w3.org/2000/svg">
    <!-- Background -->
    <rect width="108" height="108" rx="24" ry="24" fill="#202020" />
    
    <!-- Group with transform -->
    <g transform="translate(30, 28) scale(2.0)">
        <path fill="#2DE2B3" d="M12,2 L3,6 L3,12 C3,17.5 7,22.7 12,24 C17,22.7 21,17.5 21,12 L21,6 L12,2 Z M12,21.9 C8,20.7 5,16.5 5,12 L5,7.3 L12,4.2 L19,7.3 L19,12 C19,16.5 16,20.7 12,21.9 Z"/>
        <path fill="#2DE2B3" d="M12,8 C10.3,8 9,9.3 9,11 C9,12.4 9.9,13.5 11.2,13.9 L11.2,18 L12.8,18 L12.8,13.9 C14.1,13.5 15,12.4 15,11 C15,9.3 13.7,8 12,8 Z M12,12.5 C11.2,12.5 10.5,11.8 10.5,11 C10.5,10.2 11.2,9.5 12,9.5 C12.8,9.5 13.5,10.2 13.5,11 C13.5,11.8 12.8,12.5 12,12.5 Z"/>
    </g>
</svg>
